<svg version="1.1" xmlns="http://www.w3.org/2000/svg" xmlns:xlink="http://www.w3.org/1999/xlink" viewBox="0 0 172 172"><g fill="none" fill-rule="nonzero" stroke="none" stroke-width="1" stroke-linecap="butt" stroke-linejoin="miter" stroke-miterlimit="10" stroke-dasharray="" stroke-dashoffset="0" font-family="none" font-weight="none" font-size="none" text-anchor="none" style="mix-blend-mode: normal"><path d="M0,172v-172h172v172z" fill="none"></path><g fill="#ffffff"><path d="M86,12.9c-30.76874,0 -55.9,23.30164 -55.9,52.18369v14.46631h-7.525c-4.13055,0 -7.525,3.39445 -7.525,7.525c0,3.76243 2.82632,6.88393 6.45,7.41582v5.13984c0,21.11484 14.61765,46.35041 36.42822,55.01816c0.25262,0.10009 0.52193,0.15138 0.79365,0.15117h54.55625c0.27173,0.00021 0.54103,-0.05109 0.79365,-0.15117c21.81678,-8.66754 36.42822,-33.89955 36.42822,-55.01816v-5.13984c3.62368,-0.53189 6.45,-3.65339 6.45,-7.41582c0,-4.13055 -3.39445,-7.525 -7.525,-7.525h-7.525v-14.46211c0,-28.88411 -25.13126,-52.18789 -55.9,-52.18789zM86,17.2c28.60566,0 51.6,21.49979 51.6,47.88789v14.46211h-13.07637c0.58536,-4.47646 -0.41156,-9.19901 -3.19141,-13.22334v-0.0042h-0.0042c-3.793,-5.48581 -9.97982,-8.04913 -16.18379,-7.91553c0.18587,-5.92369 -0.81985,-11.77187 -4.97607,-15.11719c-2.26605,-1.82474 -4.97665,-2.51914 -7.81475,-2.44814c-2.8381,0.07099 -5.80206,0.90941 -8.5748,2.1458c-5.5455,2.47278 -10.67828,6.61955 -13.62227,11.04394c-0.24924,0.37533 -0.45121,0.75718 -0.66768,1.13799c-0.73581,-0.23514 -1.47657,-0.44253 -2.22139,-0.62568c-2.99116,-0.73552 -6.10955,-1.03296 -8.97793,-0.60049c-2.86838,0.43247 -5.49037,1.59381 -7.49561,3.78769c-2.73462,2.99328 -3.61096,7.1568 -3.48535,11.43028c0.10132,3.44684 0.97591,6.99096 2.1458,10.38887h-15.0542v-14.46631c0,-26.38585 22.99434,-47.88369 51.6,-47.88369zM92.28623,45.171c2.05429,-0.07158 3.84761,0.39196 5.18604,1.46972c2.53461,2.04009 3.65752,6.81888 3.43076,12.19453c-2.03081,0.52388 -4.04508,1.21358 -5.87051,2.45654c-3.00561,2.04637 -5.86755,5.2114 -8.16328,8.85195c-0.87192,-2.55271 -2.22957,-4.95446 -4.15723,-7.01689c-2.34062,-2.5026 -5.57977,-4.71587 -9.17949,-6.37441c0.06931,-0.11097 0.12998,-0.23224 0.20156,-0.34014l0.0042,-0.0042c2.32022,-3.48435 7.0194,-7.36655 11.79141,-9.49443c2.38698,-1.06437 4.70225,-1.67109 6.75654,-1.74267zM60.7375,58.0584c1.7033,-0.04211 3.56716,0.18796 5.50098,0.66348c5.15683,1.26806 10.48518,4.29584 13.33252,7.34023c3.38427,3.62091 4.54345,8.66484 3.90527,13.48789h-29.44492c-1.33039,-3.44641 -2.32503,-7.18342 -2.42295,-10.51484c-0.10552,-3.58961 0.68493,-6.56917 2.35996,-8.40264c1.22837,-1.34394 3.00745,-2.1388 5.12305,-2.43975c0.5289,-0.07523 1.07833,-0.12034 1.64609,-0.13438zM105.57676,62.3416c4.68614,-0.00445 9.32094,2.24257 12.21553,6.429c2.28037,3.30312 3.00269,7.16029 2.38516,10.77939h-32.27519c0.08426,-0.78936 0.11971,-1.58399 0.12178,-2.37676c2.10855,-5.04996 6.0167,-10.00263 9.42725,-12.32471c2.48341,-1.69099 5.31381,-2.50426 8.12549,-2.50693zM22.575,83.85h126.85c1.80775,0 3.225,1.41725 3.225,3.225c0,1.80775 -1.41725,3.225 -3.225,3.225h-126.85c-1.80775,0 -3.225,-1.41725 -3.225,-3.225c0,-1.80775 1.41725,-3.225 3.225,-3.225zM25.8,94.6h13.09736l-0.10918,0.60889l1.31436,1.40674l0.74746,0.13438l1.72168,-0.86504l0.23096,-1.28496h15.44473l-0.10918,0.60889l1.31436,1.40674l0.74746,0.13438l1.72168,-0.86504l0.23096,-1.28496h21.89473l-0.10918,0.60889l1.31436,1.40674l0.74746,0.13438l1.72168,-0.86504l0.23096,-1.28496h21.89473l-0.10918,0.60889l1.31436,1.40674l0.74746,0.13438l1.72168,-0.86504l0.23096,-1.28496h17.59473l-0.10918,0.60889l1.31436,1.40674l0.74746,0.13438l1.72168,-0.86504l0.23096,-1.28496h10.94736v5.03066c0,3.44189 -0.47188,7.04835 -1.33535,10.69121l-0.38633,0.19316l-0.34014,1.89385l0.13017,0.13857c-2.4227,8.61728 -7.04455,17.28122 -13.24853,24.40166l-1.27236,-1.36475l-0.74746,-0.13438l-1.72168,0.86504l-0.34014,1.89385l1.31436,1.40674l0.26035,0.04619c-4.601,4.65565 -9.90727,8.46641 -15.73447,10.83818h-53.55684c-5.86939,-2.38973 -11.21055,-6.23857 -15.83525,-10.94316l1.33535,-0.67187l0.34014,-1.89385l-1.31436,-1.40674l-0.74746,-0.13438l-1.72168,0.86504l-0.14278,0.80625c-6.34044,-7.22164 -11.04787,-16.05737 -13.47109,-24.82578l0.19736,-1.10439l-0.70127,-0.75166c-0.8826,-3.68402 -1.36055,-7.32939 -1.36055,-10.80879zM42.53809,100.88203l-1.72588,0.86504l-0.33594,1.89385l1.31436,1.40674l0.74746,0.13438l1.72168,-0.86084l0.34014,-1.89805l-1.31856,-1.40674zM131.61191,100.88203l-1.72168,0.86504l-0.34014,1.89385l1.31856,1.40674l0.74326,0.13438l1.72588,-0.86084l0.33594,-1.89805l-1.31436,-1.40674zM60.2,101.05l-1.72168,0.86504l-0.34014,1.89385l1.31436,1.40674l0.74746,0.13438l1.72168,-0.86504l0.34014,-1.89385l-1.31436,-1.40674zM86,101.05l-1.72168,0.86504l-0.34014,1.89385l1.31436,1.40674l0.74746,0.13438l1.72168,-0.86504l0.34014,-1.89385l-1.31436,-1.40674zM111.8,101.05l-1.72168,0.86504l-0.34014,1.89385l1.31436,1.40674l0.74746,0.13438l1.72168,-0.86504l0.34014,-1.89385l-1.31436,-1.40674zM34.4,109.65l-1.72168,0.86504l-0.34014,1.89385l1.31436,1.40674l0.74746,0.13437l1.72168,-0.86504l0.34014,-1.89385l-1.31436,-1.40674zM43,109.65l-1.72168,0.86504l-0.34014,1.89385l1.31436,1.40674l0.74746,0.13437l1.72168,-0.86504l0.34014,-1.89385l-1.31436,-1.40674zM51.6,109.65l-1.72168,0.86504l-0.34014,1.89385l1.31436,1.40674l0.74746,0.13437l1.72168,-0.86504l0.34014,-1.89385l-1.31436,-1.40674zM60.2,109.65l-1.72168,0.86504l-0.34014,1.89385l1.31436,1.40674l0.74746,0.13437l1.72168,-0.86504l0.34014,-1.89385l-1.31436,-1.40674zM68.8,109.65l-1.72168,0.86504l-0.34014,1.89385l1.31436,1.40674l0.74746,0.13437l1.72168,-0.86504l0.34014,-1.89385l-1.31436,-1.40674zM77.4,109.65l-1.72168,0.86504l-0.34014,1.89385l1.31436,1.40674l0.74746,0.13437l1.72168,-0.86504l0.34014,-1.89385l-1.31436,-1.40674zM86,109.65l-1.72168,0.86504l-0.34014,1.89385l1.31436,1.40674l0.74746,0.13437l1.72168,-0.86504l0.34014,-1.89385l-1.31436,-1.40674zM94.6,109.65l-1.72168,0.86504l-0.34014,1.89385l1.31436,1.40674l0.74746,0.13437l1.72168,-0.86504l0.34014,-1.89385l-1.31436,-1.40674zM103.2,109.65l-1.72168,0.86504l-0.34014,1.89385l1.31436,1.40674l0.74746,0.13437l1.72168,-0.86504l0.34014,-1.89385l-1.31436,-1.40674zM111.8,109.65l-1.72168,0.86504l-0.34014,1.89385l1.31436,1.40674l0.74746,0.13437l1.72168,-0.86504l0.34014,-1.89385l-1.31436,-1.40674zM120.4,109.65l-1.72168,0.86504l-0.34014,1.89385l1.31436,1.40674l0.74746,0.13437l1.72168,-0.86504l0.34014,-1.89385l-1.31436,-1.40674zM129,109.65l-1.72168,0.86504l-0.34014,1.89385l1.31436,1.40674l0.74746,0.13437l1.72168,-0.86504l0.34014,-1.89385l-1.31436,-1.40674zM137.6,109.65l-1.72168,0.86504l-0.34014,1.89385l1.31436,1.40674l0.74746,0.13437l1.72168,-0.86504l0.34014,-1.89385l-1.31436,-1.40674zM45.15,118.25l-1.72168,0.86504l-0.34014,1.89385l1.31436,1.40674l0.74746,0.13438l1.72168,-0.86504l0.34014,-1.89385l-1.31436,-1.40674zM62.35,118.25l-1.72168,0.86504l-0.34014,1.89385l1.31436,1.40674l0.74746,0.13438l1.72168,-0.86504l0.34014,-1.89385l-1.31436,-1.40674zM86,118.25l-1.72168,0.86504l-0.34014,1.89385l1.31436,1.40674l0.74746,0.13438l1.72168,-0.86504l0.34014,-1.89385l-1.31436,-1.40674zM109.65,118.25l-1.72168,0.86504l-0.34014,1.89385l1.31436,1.40674l0.74746,0.13438l1.72168,-0.86504l0.34014,-1.89385l-1.31436,-1.40674zM126.85,118.25l-1.72168,0.86504l-0.34014,1.89385l1.31436,1.40674l0.74746,0.13438l1.72168,-0.86504l0.34014,-1.89385l-1.31436,-1.40674zM48.34561,126.23691l-1.72588,0.86084l-0.33594,1.89805l1.31436,1.40674l0.74746,0.13438l1.72168,-0.86504l0.34014,-1.89805l-1.31855,-1.40674zM65.54561,126.23691l-1.72588,0.86084l-0.33594,1.89805l1.31436,1.40674l0.74746,0.13438l1.72168,-0.86504l0.34014,-1.89805l-1.31855,-1.40674zM106.45439,126.23691l-1.72168,0.86084l-0.34014,1.89805l1.31855,1.40674l0.74326,0.13438l1.72588,-0.86504l0.33594,-1.89805l-1.31436,-1.40674zM123.65439,126.23691l-1.72168,0.86084l-0.34014,1.89805l1.31855,1.40674l0.74326,0.13438l1.72588,-0.86504l0.33594,-1.89805l-1.31436,-1.40674zM86,126.85l-1.72168,0.86504l-0.34014,1.89385l1.31436,1.40674l0.74746,0.13438l1.72168,-0.86504l0.34014,-1.89385l-1.31436,-1.40674zM51.6,135.45l-1.72168,0.86504l-0.34014,1.89385l1.31436,1.40674l0.74746,0.13438l1.72168,-0.86504l0.34014,-1.89385l-1.31436,-1.40674zM60.2,135.45l-1.72168,0.86504l-0.34014,1.89385l1.31436,1.40674l0.74746,0.13438l1.72168,-0.86504l0.34014,-1.89385l-1.31436,-1.40674zM68.8,135.45l-1.72168,0.86504l-0.34014,1.89385l1.31436,1.40674l0.74746,0.13438l1.72168,-0.86504l0.34014,-1.89385l-1.31436,-1.40674zM77.4,135.45l-1.72168,0.86504l-0.34014,1.89385l1.31436,1.40674l0.74746,0.13438l1.72168,-0.86504l0.34014,-1.89385l-1.31436,-1.40674zM86,135.45l-1.72168,0.86504l-0.34014,1.89385l1.31436,1.40674l0.74746,0.13438l1.72168,-0.86504l0.34014,-1.89385l-1.31436,-1.40674zM94.6,135.45l-1.72168,0.86504l-0.34014,1.89385l1.31436,1.40674l0.74746,0.13438l1.72168,-0.86504l0.34014,-1.89385l-1.31436,-1.40674zM103.2,135.45l-1.72168,0.86504l-0.34014,1.89385l1.31436,1.40674l0.74746,0.13438l1.72168,-0.86504l0.34014,-1.89385l-1.31436,-1.40674zM111.8,135.45l-1.72168,0.86504l-0.34014,1.89385l1.31436,1.40674l0.74746,0.13438l1.72168,-0.86504l0.34014,-1.89385l-1.31436,-1.40674zM120.4,135.45l-1.72168,0.86504l-0.34014,1.89385l1.31436,1.40674l0.74746,0.13438l1.72168,-0.86504l0.34014,-1.89385l-1.31436,-1.40674zM60.2,144.05c-1.18741,0 -2.15,0.96259 -2.15,2.15c0,1.18741 0.96259,2.15 2.15,2.15c1.18741,0 2.15,-0.96259 2.15,-2.15c0,-1.18741 -0.96259,-2.15 -2.15,-2.15zM70.95,144.05c-1.18741,0 -2.15,0.96259 -2.15,2.15c0,1.18741 0.96259,2.15 2.15,2.15c1.18741,0 2.15,-0.96259 2.15,-2.15c0,-1.18741 -0.96259,-2.15 -2.15,-2.15zM86,144.05l-1.72168,0.86504l-0.34014,1.89385l1.31436,1.40674l0.74746,0.13438l1.72168,-0.86504l0.34014,-1.89385l-1.31436,-1.40674zM101.05,144.05c-1.18741,0 -2.15,0.96259 -2.15,2.15c0,1.18741 0.96259,2.15 2.15,2.15c1.18741,0 2.15,-0.96259 2.15,-2.15c0,-1.18741 -0.96259,-2.15 -2.15,-2.15zM111.8,144.05c-1.18741,0 -2.15,0.96259 -2.15,2.15c0,1.18741 0.96259,2.15 2.15,2.15c1.18741,0 2.15,-0.96259 2.15,-2.15c0,-1.18741 -0.96259,-2.15 -2.15,-2.15z"></path></g></g></svg>