<svg version="1.1" xmlns="http://www.w3.org/2000/svg" xmlns:xlink="http://www.w3.org/1999/xlink" viewBox="0 0 172 172"><g fill="none" fill-rule="nonzero" stroke="none" stroke-width="1" stroke-linecap="butt" stroke-linejoin="miter" stroke-miterlimit="10" stroke-dasharray="" stroke-dashoffset="0" font-family="none" font-weight="none" font-size="none" text-anchor="none" style="mix-blend-mode: normal"><path d="M0,172v-172h172v172z" fill="none"></path><g fill="#ffffff"><path d="M73.86594,6.88c-7.72093,-0.06592 -12.02557,3.42031 -14.33109,5.52281c-1.81671,1.65665 -3.0305,3.58626 -3.95063,5.76469l-2.94281,4.81062c-0.46157,0.75346 -0.61554,1.65563 -0.43,2.51953l1.6461,7.59219c0.168,0.78125 0.60272,1.47965 1.22953,1.97531c1.33693,1.05374 3.36013,2.92897 5.47578,4.6561c1.32201,1.07923 2.9191,1.72982 4.4075,2.53297l0.23515,3.655l-16.17875,11.91906c-0.10294,0.07509 -0.20164,0.15584 -0.29562,0.24187c-2.9705,2.74382 -4.26998,6.84343 -3.96406,11.18c0.01957,0.26236 0.06916,0.5216 0.14781,0.77266l7.01437,22.66906v0.00672c0.04085,0.20321 0.01811,0.3979 0.08735,0.60469c0.45064,1.35192 1.91828,3.61469 6.64484,3.61469c1.74875,0 3.81601,-0.38492 5.92594,-0.95406l0.24187,2.2911l-6.02672,8.55969c-0.07038,0.0995 -0.13542,0.20266 -0.19485,0.30906c-3.60445,6.47446 -6.36443,13.10378 -6.99422,20.00844c-0.00931,0.105 -0.0138,0.21037 -0.01344,0.31578v3.93047l-1.12203,0.98766c-0.62328,0.54953 -1.02661,1.30607 -1.13547,2.12984l-2.17015,16.25266c-0.13736,1.03036 0.1985,2.06759 0.91375,2.82187c1.71129,1.80521 3.70977,2.69454 5.6975,3.58781c0.17006,0.32154 0.39003,0.61408 0.65172,0.86672l-0.12094,6.65156c-0.07718,1.26167 0.54372,2.46406 1.61713,3.13157c1.0734,0.66752 2.42641,0.69265 3.52386,0.06545c1.09745,-0.6272 1.76257,-1.8057 1.7323,-3.06937l0.09406,-5.08609l2.47922,0.38297c1.22518,0.21032 2.46853,-0.25666 3.25234,-1.22152c0.78381,-0.96486 0.98616,-2.27751 0.52929,-3.43361c-0.45686,-1.15611 -1.50187,-1.97584 -2.73351,-2.14424l-6.03344,-0.92719c-1.61039,-0.48153 -3.05366,-1.558 -4.50828,-2.80172l1.1825,-8.84188l9.15765,1.51172c0.40335,0.06556 0.81514,0.05873 1.2161,-0.02015l17.24031,-3.3661l-7.71312,7.31c-1.37851,1.30801 -1.43567,3.48586 -0.12766,4.86437c1.30801,1.37851 3.48586,1.43567 4.86438,0.12766l19.995,-18.95359l19.00063,-6.1611l1.96859,10.26625l-17.05219,5.18015c-0.14448,0.04439 -0.28588,0.09826 -0.42328,0.16125c-9.55334,4.34583 -16.65284,11.95331 -21.715,21.62766c-0.60292,1.09184 -0.56768,2.42448 0.09209,3.48293c0.65977,1.05845 1.84073,1.67693 3.0865,1.61642c1.24578,-0.06051 2.36123,-0.79053 2.91531,-1.90795c4.51768,-8.63379 10.44583,-14.85558 18.38922,-18.49672l11.95266,-3.63485l-1.33031,20.55938c-0.07936,1.22668 0.50179,2.4025 1.5245,3.08448c1.02271,0.68199 2.33157,0.76651 3.4335,0.22173c1.10193,-0.54478 1.82948,-1.63608 1.90856,-2.86278l1.46469,-22.66235l2.3314,-3.70203c0.46281,-0.73792 0.62849,-1.62392 0.4636,-2.47922l-2.82187,-14.73422c-0.31814,-1.67293 -1.81229,-2.86139 -3.51391,-2.795l-0.28219,0.01344l-0.59797,-10.37375c-0.0131,-0.22922 -0.04911,-0.45655 -0.1075,-0.6786l-2.21047,-8.4186l1.76703,-8.41187c0.05895,-0.2849 0.08153,-0.57613 0.06719,-0.86672l-1.04141,-22.31969c0.88992,-1.27224 1.67981,-3.53543 2.0761,-7.4175c0.1504,-1.14062 0.25381,-2.31873 0.30906,-3.50047c0.10894,-2.32981 0.04686,-4.63905 -0.27547,-6.69187c-0.10982,-0.69937 -0.2724,-1.36486 -0.47031,-2.02235c-0.02287,-0.08929 -0.05443,-0.16955 -0.08062,-0.26203c-0.07181,-0.21921 -0.12763,-0.44107 -0.215,-0.65844c-0.03993,-0.09935 -0.11108,-0.20758 -0.15453,-0.30906c-0.49872,-1.22874 -1.30405,-2.44156 -2.80844,-2.88906c-0.1124,-0.0395 -0.22677,-0.07314 -0.34265,-0.10078l-8.11625,-1.82078c-0.45261,-0.10173 -0.92111,-0.11087 -1.37735,-0.02688l-8.57312,1.57891l-7.80719,-1.59235c0.20865,-0.44161 0.32088,-0.92259 0.32922,-1.41094l0.20156,-14.99625l0.61141,-0.88687c0.41531,-0.60346 0.62715,-1.32372 0.60469,-2.05594c-0.08637,-3.0004 -0.85406,-6.73141 -3.03687,-9.88328c-0.75113,-1.08845 -2.05968,-1.65001 -3.3661,-1.44453l-0.55094,0.08734c-1.85233,-1.78598 -5.44689,-4.67319 -12.44313,-4.73zM73.80547,13.76c6.67399,0.05419 8.78813,3.49375 8.78813,3.49375c0.58779,0.81197 1.50048,1.3272 2.49937,1.41094c0.47076,1.2423 0.90797,2.43166 1.05485,3.56094l-0.36281,0.52406c-0.38623,0.56205 -0.5967,1.22621 -0.60469,1.90813l-0.18813,14.39156c-0.08327,0.14099 -0.12028,0.22874 -0.32922,0.49047c-0.3289,0.412 -0.7485,0.54676 -0.3561,0.46359c-0.59977,0.12656 -1.25146,0.28693 -1.81406,0.38297c-0.5646,0.09635 -1.14286,-0.03722 -0.50391,0.12766c-1.19072,-0.30763 -2.45511,0.04347 -3.31673,0.92101c-0.86162,0.87754 -1.18951,2.14814 -0.86014,3.33303c0.32938,1.18489 1.26597,2.10399 2.45686,2.41096c1.59872,0.41257 2.48455,0.14043 3.38625,-0.01344c0.44666,-0.07624 0.66899,-0.13682 1.02797,-0.215l1.15562,0.81969c0.39049,0.27674 0.83443,0.46896 1.30344,0.56437l11.46219,2.33141c0.43183,0.08837 0.87661,0.09293 1.31016,0.01344l8.53953,-1.57219l3.3325,0.74578c-0.37379,1.72571 -0.65245,3.89715 -0.73906,6.79937c-0.08256,2.72792 0.05928,5.33151 0.3964,7.33015c0.11633,0.68432 0.34789,2.06016 0.99438,3.28547l0.32922,7.10844c-0.17507,0.4284 -0.26191,0.88772 -0.25531,1.35047c0,0.82369 -0.9664,2.20614 -3.23844,3.18469c-2.27204,0.97855 -5.31607,1.15399 -7.26297,0.36953c-1.14568,-0.48558 -2.46428,-0.31466 -3.4483,0.44697c-0.98402,0.76164 -1.48007,1.99527 -1.29723,3.22611c0.18283,1.23084 1.01605,2.26701 2.17897,2.70973c4.16598,1.67858 8.73644,1.21273 12.55063,-0.43c0.43099,-0.18563 0.82943,-0.46638 1.24969,-0.69203l0.26203,5.56984l-1.84766,8.78141c-0.10919,0.52231 -0.09539,1.06285 0.04031,1.5789l2.33141,8.87547l0.62484,10.90453l-17.43515,5.65047c-0.4865,0.15748 -0.93178,0.42144 -1.30344,0.77266l-3.69531,3.50719c-0.31929,-0.02434 -0.64041,-0.00399 -0.95406,0.06047l-26.1561,5.10625l-6.21484,-1.02125v0.86672c0.00595,-0.61258 -0.15177,-1.21565 -0.45688,-1.74687c0,-0.00224 0,-0.00448 0,-0.00672c0.02578,-0.16675 0.03925,-0.33518 0.04031,-0.50391v-5.2339c0.50569,-5.42087 2.78259,-11.17383 6.0939,-17.13953l6.62469,-9.41297c0.48144,-0.6816 0.69873,-1.51495 0.6114,-2.34485l-0.59125,-5.46906c1.24375,-0.70467 2.35013,-1.49147 3.23844,-2.35828c1.61832,0.65875 3.3291,1.02646 4.99875,1.08172c3.66123,0.12116 7.2553,-0.89425 10.15203,-2.84875c1.05709,-0.67048 1.66658,-1.86223 1.59143,-3.11176c-0.07515,-1.24954 -0.82306,-2.35965 -1.95289,-2.89861c-1.12983,-0.53896 -2.46324,-0.42171 -3.48167,0.30616c-1.51336,1.0211 -3.94702,1.74357 -6.08047,1.67297c-1.59637,-0.05283 -2.58006,-0.81512 -3.55422,-1.57891l-4.40078,-12.1475c-0.46489,-1.34115 -1.70573,-2.25911 -3.12422,-2.31125c-1.15222,-0.04306 -2.2494,0.49395 -2.92226,1.43029c-0.67286,0.93634 -0.83193,2.14748 -0.42367,3.22581l2.86219,7.89453c-1.8845,0.16822 -3.92984,0.5382 -6.03344,1.24297c-1.8443,0.61872 -3.64555,1.43092 -5.24062,2.37172l-5.16672,-16.70281c-0.15092,-2.70595 0.41132,-4.23581 1.71328,-5.4489l17.40156,-12.81938c0.94675,-0.69486 1.47364,-1.82465 1.3975,-2.99656l-0.4636,-7.16219c-0.10098,-1.55438 -1.23373,-2.84697 -2.7614,-3.1511c-0.1553,-0.03109 -1.71979,-0.92273 -3.33922,-2.12985c1.22128,-0.3032 2.41652,-0.65837 3.52062,-1.18922c0.00224,0 0.00448,0 0.00672,0c2.13412,-1.02836 4.15034,-2.73841 6.13422,-4.36719c1.98388,-1.62877 3.62812,-3.09734 3.62812,-3.09734c1.07149,-0.92723 1.46488,-2.41658 0.99102,-3.75199c-0.47386,-1.33541 -1.71801,-2.24369 -3.13431,-2.28816c-0.89483,-0.0269 -1.76491,0.29606 -2.42547,0.90031c0,0 -1.56194,1.38507 -3.42656,2.91594c-1.86166,1.52843 -4.32268,3.27927 -4.75016,3.48703c-0.26402,0.12695 -2.83426,0.87843 -4.89125,1.31687c-0.66635,0.14203 -0.68979,0.1324 -1.24969,0.24188l-0.79953,-3.67516l2.31797,-3.78937c0.0991,-0.16284 0.1845,-0.33364 0.25531,-0.51063c0.7285,-1.81221 1.15903,-2.50825 2.365,-3.60797c2.30407,-2.10118 3.65753,-3.77322 9.63469,-3.72219zM90.88453,110.57719c-2.32544,-0.14448 -4.3336,0.60313 -4.3336,1.67297c0,1.83008 1.62519,1.62255 3.95063,1.76703c2.32544,0.14792 4.47469,0.68343 4.47469,-1.24297c0,-1.06984 -1.76284,-2.04911 -4.09172,-2.19703z"></path></g></g></svg>