<svg version="1.1" xmlns="http://www.w3.org/2000/svg" xmlns:xlink="http://www.w3.org/1999/xlink" viewBox="0 0 172 172"><g fill="none" fill-rule="nonzero" stroke="none" stroke-width="1" stroke-linecap="butt" stroke-linejoin="miter" stroke-miterlimit="10" stroke-dasharray="" stroke-dashoffset="0" font-family="none" font-weight="none" font-size="none" text-anchor="none" style="mix-blend-mode: normal"><path d="M0,172v-172h172v172z" fill="none"></path><g fill="#ffffff"><path d="M99.6525,4.1925c-0.645,0.12094 -1.23625,0.41656 -1.72,0.86l-14.5125,12.47l-4.945,-5.4825c-0.67187,-0.77937 -1.66625,-1.20937 -2.6875,-1.1825c-0.86,0.06719 -1.66625,0.44344 -2.2575,1.075l-8.6,8.7075h-11.7175c-0.1075,0 -0.215,0 -0.3225,0c-0.1075,0 -0.215,0 -0.3225,0c-0.55094,0.12094 -1.075,0.37625 -1.505,0.7525l-34.9375,26.875l-0.215,0.1075c-0.04031,0.04031 -0.06719,0.06719 -0.1075,0.1075c-0.04031,0 -0.06719,0 -0.1075,0c-0.14781,0.06719 -0.29562,0.13438 -0.43,0.215c-0.04031,0.04031 -0.06719,0.06719 -0.1075,0.1075c-0.08062,0.06719 -0.14781,0.13438 -0.215,0.215c-0.12094,0.09406 -0.22844,0.20156 -0.3225,0.3225c-0.12094,0.13438 -0.22844,0.28219 -0.3225,0.43c-0.04031,0.06719 -0.08062,0.14781 -0.1075,0.215c-0.04031,0.04031 -0.06719,0.06719 -0.1075,0.1075c-0.08062,0.17469 -0.16125,0.34938 -0.215,0.5375l-13.545,26.9825c-0.67188,1.33031 -0.41656,2.92938 0.63156,3.99094c1.06156,1.04813 2.66062,1.30344 3.99094,0.63156l8.815,-4.4075v70.09c0,1.89469 1.54531,3.44 3.44,3.44h103.2c0.04031,0 0.06719,0 0.1075,0c0.215,-0.01344 0.43,-0.05375 0.645,-0.1075c0.1075,-0.02687 0.215,-0.06719 0.3225,-0.1075c0.86,-0.25531 1.59906,-0.83312 2.0425,-1.6125l27.09,-33.8625c0.48375,-0.60469 0.7525,-1.37062 0.7525,-2.15v-32.895l19.6725,-19.6725c1.08844,-1.14219 1.26313,-2.86219 0.43,-4.1925l-19.995,-33.325c-0.02687,-0.1075 -0.06719,-0.215 -0.1075,-0.3225c-0.14781,-0.48375 -0.41656,-0.91375 -0.7525,-1.29c-0.02687,-0.06719 -0.06719,-0.14781 -0.1075,-0.215c-0.04031,0 -0.06719,0 -0.1075,0c-0.02687,-0.06719 -0.06719,-0.14781 -0.1075,-0.215c-0.04031,0 -0.06719,0 -0.1075,0c-0.06719,-0.04031 -0.14781,-0.08062 -0.215,-0.1075c0,-0.04031 0,-0.06719 0,-0.1075c-0.04031,0 -0.06719,0 -0.1075,0c-0.17469,-0.12094 -0.34937,-0.22844 -0.5375,-0.3225c-0.04031,0 -0.06719,0 -0.1075,0c-0.06719,-0.04031 -0.14781,-0.08062 -0.215,-0.1075c-0.04031,0 -0.06719,0 -0.1075,0c-0.06719,-0.04031 -0.14781,-0.08062 -0.215,-0.1075c-0.04031,0 -0.06719,0 -0.1075,0c-0.06719,0 -0.14781,0 -0.215,0c-0.04031,0 -0.06719,0 -0.1075,0c-0.06719,0 -0.14781,0 -0.215,0c-0.04031,0 -0.06719,0 -0.1075,0h-0.215c-0.06719,0 -0.14781,0 -0.215,0h-30.4225l-14.405,-15.265c-0.60469,-0.69875 -1.45125,-1.11531 -2.365,-1.1825c-0.215,-0.02687 -0.43,-0.02687 -0.645,0zM99.975,12.3625l26.5525,28.165l-7.6325,7.6325h-8.2775c-0.09406,-0.12094 -0.20156,-0.22844 -0.3225,-0.3225l-22.36,-25.155zM75.7875,19.35l25.6925,28.81h-53.8575zM54.2875,27.52h3.9775l-20.3175,20.64h-10.6425zM123.5175,27.52h16.0175l-8.2775,8.2775zM147.275,29.67l16.985,28.165l-22.575,22.575l-16.985,-28.165zM20.64,55.04h96.32v89.44h-96.32v-71.81c0.01344,-0.14781 0.01344,-0.28219 0,-0.43zM123.84,63.855l14.2975,23.865c0.52406,0.91375 1.45125,1.54531 2.49938,1.69313c1.04812,0.14781 2.10969,-0.20156 2.87562,-0.94063l0.9675,-0.9675v24.8325l-20.64,25.8zM13.76,66.22v3.87l-2.58,1.29zM50.6325,68.8c-1.89469,0.26875 -3.225,2.02906 -2.95625,3.92375c0.26875,1.89469 2.02906,3.225 3.92375,2.95625h34.4c1.23625,0.01344 2.39188,-0.63156 3.02344,-1.70656c0.61813,-1.075 0.61813,-2.39187 0,-3.46687c-0.63156,-1.075 -1.78719,-1.72 -3.02344,-1.70656h-34.4c-0.1075,0 -0.215,0 -0.3225,0c-0.1075,0 -0.215,0 -0.3225,0c-0.1075,0 -0.215,0 -0.3225,0z"></path></g></g></svg>